<?xml version="1.0" standalone="no"?>
<!DOCTYPE svg PUBLIC "-//W3C//DTD SVG 20010904//EN"
 "http://www.w3.org/TR/2001/REC-SVG-20010904/DTD/svg10.dtd">
<svg version="1.0" xmlns="http://www.w3.org/2000/svg"
 width="2500.000000pt" height="2500.000000pt" viewBox="0 0 2500.000000 2500.000000"
 preserveAspectRatio="xMidYMid meet">
<metadata>
Created by potrace 1.15, written by Peter Selinger 2001-2017
</metadata>
<g transform="translate(0.000000,2500.000000) scale(0.100000,-0.100000)"
fill="#000000" stroke="none">
<path d="M6828 19985 c-405 -55 -772 -214 -1067 -460 -96 -80 -236 -221 -304
-305 -188 -234 -344 -559 -407 -847 -53 -244 -50 131 -50 -5871 0 -3652 4
-5578 10 -5637 46 -407 216 -809 470 -1110 360 -427 839 -683 1395 -745 73 -8
1630 -10 5685 -8 l5585 3 125 23 c319 60 601 179 861 364 199 140 450 413 577
627 148 249 249 552 282 846 6 59 10 1985 10 5637 0 6001 3 5627 -50 5870 -63
287 -213 603 -400 838 -122 154 -319 335 -485 445 -193 129 -469 246 -693 295
-243 53 133 50 -5885 49 -4560 -1 -5580 -3 -5659 -14z m11393 -856 c245 -68
431 -179 602 -359 169 -177 280 -396 322 -634 13 -79 15 -674 15 -5636 0
-4962 -2 -5557 -15 -5636 -78 -443 -404 -820 -833 -964 -195 -65 295 -60
-5812 -60 -6107 0 -5617 -5 -5812 60 -365 123 -665 423 -788 788 -65 195 -60
-295 -60 5812 0 4962 2 5557 15 5636 84 477 453 873 925 990 52 13 131 27 175
31 44 5 2575 6 5625 3 l5545 -5 96 -26z"/>
<path d="M16969 18330 c-465 -46 -865 -342 -1042 -770 -93 -225 -119 -484 -71
-717 102 -504 477 -878 989 -989 123 -26 359 -24 495 5 790 168 1215 1022 875
1759 -108 233 -318 452 -553 575 -204 107 -471 160 -693 137z m257 -858 c74
-28 139 -76 185 -137 160 -213 91 -504 -149 -622 -73 -36 -80 -38 -176 -38
-140 1 -197 24 -292 119 -95 95 -118 152 -119 292 0 96 2 103 38 176 58 118
164 201 289 228 61 13 165 5 224 -18z"/>
<path d="M12280 16663 c-372 -25 -737 -92 -1055 -193 -165 -53 -420 -157 -585
-240 -413 -208 -756 -456 -1085 -785 -533 -533 -902 -1175 -1090 -1898 -246
-949 -147 -1969 276 -2846 102 -210 158 -310 285 -501 570 -861 1422 -1471
2424 -1734 427 -112 876 -155 1316 -125 897 59 1720 389 2419 970 125 104 374
351 486 484 1016 1194 1278 2842 681 4295 -100 245 -215 459 -377 705 -575
870 -1449 1492 -2454 1745 -404 101 -876 148 -1241 123z m670 -863 c1194 -164
2203 -956 2649 -2077 95 -239 167 -520 208 -813 24 -177 24 -632 0 -815 -105
-779 -438 -1446 -993 -1985 -521 -505 -1168 -817 -1899 -915 -170 -23 -489
-30 -669 -16 -763 62 -1441 358 -2008 877 -502 460 -855 1084 -997 1759 -54
258 -65 373 -65 685 0 311 9 410 64 680 282 1384 1441 2453 2845 2624 196 24
202 24 465 21 181 -2 285 -9 400 -25z"/>
</g>
</svg>
